<svg xmlns="http://www.w3.org/2000/svg" viewBox="0 0 64 64" role="img" aria-label="Unknown mystery stage">
  <rect x="2" y="2" width="60" height="60" rx="18" fill="#fff5e8" stroke="#3f2d4f" stroke-width="4"/>

  <path d="M15 38c0-6 4-10 10-11 2-7 9-11 16-8 5 2 8 6 8 11 5 1 8 5 8 10 0 7-6 11-13 11H26c-7 0-11-5-11-13Z" fill="#eadff2" stroke="#3f2d4f" stroke-width="3" stroke-linejoin="round"/>
  <path d="M27 29c1-5 10-7 14-2 5 7-7 8-7 14" fill="none" stroke="#a98bc1" stroke-width="5" stroke-linecap="round"/>
  <circle cx="34" cy="47" r="3" fill="#e79ab0"/>
  <path d="M17 17l-4-4M48 14l4-4" stroke="#efc56b" stroke-width="3" stroke-linecap="round"/>
</svg>
